<svg xmlns="http://www.w3.org/2000/svg" version="1.0" viewBox="0 0 944 944"><path fill-opacity=".2" d="M310.9 298.7c-1.3 1.6-1.2 1.7.4.4.9-.7 1.7-1.5 1.7-1.7 0-.8-.8-.3-2.1 1.3m320.1-1.3c0 .2.8 1 1.8 1.7 1.5 1.3 1.6 1.2.3-.4s-2.1-2.1-2.1-1.3m-333.1 14.3c-1.3 1.6-1.2 1.7.4.4.9-.7 1.7-1.5 1.7-1.7 0-.8-.8-.3-2.1 1.3m346.1-1.3c0 .2.8 1 1.8 1.7 1.5 1.3 1.6 1.2.3-.4s-2.1-2.1-2.1-1.3m-347 321c0 .2.8 1 1.8 1.7 1.5 1.3 1.6 1.2.3-.4s-2.1-2.1-2.1-1.3m347.9 1.3c-1.3 1.6-1.2 1.7.4.4.9-.7 1.7-1.5 1.7-1.7 0-.8-.8-.3-2.1 1.3M310 644.4c0 .2.8 1 1.8 1.7 1.5 1.3 1.6 1.2.3-.4s-2.1-2.1-2.1-1.3m321.9 1.3c-1.3 1.6-1.2 1.7.4.4s2.1-2.1 1.3-2.1c-.2 0-1 .8-1.7 1.7"/><path fill-opacity=".3" d="m304.5 305.2-5 5.3 5.3-5c4.8-4.6 5.7-5.5 4.9-5.5-.1 0-2.5 2.4-5.2 5.2m334-.2c2.7 2.7 5.1 5 5.4 5s-1.7-2.3-4.4-5c-2.7-2.8-5.1-5-5.4-5s1.7 2.2 4.4 5m-334 334c2.7 2.7 5.1 5 5.4 5s-1.7-2.3-4.4-5c-2.7-2.8-5.1-5-5.4-5s1.7 2.2 4.4 5m334 .2-5 5.3 5.3-5c4.8-4.6 5.7-5.5 4.9-5.5-.1 0-2.5 2.4-5.2 5.2"/><path fill-opacity=".8" d="M462.8 236.7c.7.3 1.6.2 1.9-.1.4-.3-.2-.6-1.3-.5-1.1 0-1.4.3-.6.6m17 0c.7.3 1.6.2 1.9-.1.4-.3-.2-.6-1.3-.5-1.1 0-1.4.3-.6.6m-174.8 69-5.5 5.8 5.8-5.5c5.3-5 6.2-6 5.4-6-.1 0-2.7 2.6-5.7 5.7m333-.2c3 3 5.7 5.5 5.9 5.5.3 0-1.9-2.5-4.9-5.5s-5.7-5.5-5.9-5.5c-.3 0 1.9 2.5 4.9 5.5M236.1 463.6c0 1.1.3 1.4.6.6.3-.7.2-1.6-.1-1.9-.3-.4-.6.2-.5 1.3m471 0c0 1.1.3 1.4.6.6.3-.7.2-1.6-.1-1.9-.3-.4-.6.2-.5 1.3m-471 17c0 1.1.3 1.4.6.6.3-.7.2-1.6-.1-1.9-.3-.4-.6.2-.5 1.3m471 0c0 1.1.3 1.4.6.6.3-.7.2-1.6-.1-1.9-.3-.4-.6.2-.5 1.3M305 638.5c3 3 5.7 5.5 5.9 5.5.3 0-1.9-2.5-4.9-5.5s-5.7-5.5-5.9-5.5c-.3 0 1.9 2.5 4.9 5.5m333 .2-5.5 5.8 5.8-5.5c5.3-5 6.2-6 5.4-6-.1 0-2.7 2.6-5.7 5.7m-175.2 69c.7.3 1.6.2 1.9-.1.4-.3-.2-.6-1.3-.5-1.1 0-1.4.3-.6.6m17 0c.7.3 1.6.2 1.9-.1.4-.3-.2-.6-1.3-.5-1.1 0-1.4.3-.6.6"/><path fill-opacity=".9" d="M466.3 236.7c.9.2 2.5.2 3.5 0 .9-.3.1-.5-1.8-.5s-2.7.2-1.7.5m8 0c.9.2 2.5.2 3.5 0 .9-.3.1-.5-1.8-.5s-2.7.2-1.7.5M236.2 468c0 1.9.2 2.7.5 1.7.2-.9.2-2.5 0-3.5-.3-.9-.5-.1-.5 1.8m471 0c0 1.9.2 2.7.5 1.7.2-.9.2-2.5 0-3.5-.3-.9-.5-.1-.5 1.8m-471 8c0 1.9.2 2.7.5 1.7.2-.9.2-2.5 0-3.5-.3-.9-.5-.1-.5 1.8m471 0c0 1.9.2 2.7.5 1.7.2-.9.2-2.5 0-3.5-.3-.9-.5-.1-.5 1.8M466.3 707.7c.9.2 2.5.2 3.5 0 .9-.3.1-.5-1.8-.5s-2.7.2-1.7.5m8 0c.9.2 2.5.2 3.5 0 .9-.3.1-.5-1.8-.5s-2.7.2-1.7.5"/><path d="M458.5 237.2c-22 1.1-46.2 6-66.4 13.4-21.8 8-48.2 22.7-66.5 37.2-9.1 7.1-30.7 28.7-37.8 37.8-30.2 38.3-48.2 85.7-50.6 133.1-1.7 32.5 3 64.8 13.4 93.2 8 21.8 22.7 48.2 37.2 66.5 7.1 9.1 28.7 30.7 37.8 37.8 38.3 30.2 85.7 48.2 133.1 50.6 32.5 1.7 64.8-3 93.2-13.4 21.8-8 48.2-22.7 66.5-37.2 9.1-7.1 30.7-28.7 37.8-37.8 30.2-38.3 48.2-85.7 50.6-133.2 1.7-32.4-3-64.7-13.4-93.1-8-21.8-22.7-48.2-37.2-66.5-7.1-9.1-28.7-30.7-37.8-37.8-45.9-36.2-101.1-53.6-159.9-50.6m82.5 92.3 57 28.5v7.4c0 6.5-.2 7.4-1.7 7-8.1-1.8-93.6-17.4-93.9-17.1-.3.2 6.7 5.1 15.5 10.8s16 10.6 16.1 10.9c0 .3-11.4 4.3-25.2 8.9-13.9 4.6-26.4 8.8-27.8 9.3-2.2.8-.4 2.2 21.6 16.8 21.9 14.3 24.2 16.1 24.6 18.9.3 2-.1 3.6-1.1 4.4-.9.8-10.4 6.4-21.1 12.5L485.5 459h-21.3l-17.6-10.1-17.6-10.2v-10.5l24-15.8c13.2-8.7 23.7-16 23.4-16.3s-12.8-4.7-27.7-9.7l-27.2-9.1 17-11.1c9.4-6.2 16.3-11.2 15.5-11.2s-24 4.2-51.5 9.4c-27.5 5.1-50.2 9.2-50.5 9.1-.3-.2-.3-3.8 0-8l.5-7.8 56.5-28.3 56.5-28.3h9.3l9.2-.1zm-184.6 96.2c4.3 12 11 31 14.9 42.2l7.2 20.5 1.3-19.9c.7-10.9 1.5-20.1 1.7-20.3.3-.3 25.3 21 42.1 36l2.1 1.8 1.1-18.1c.6-10 1.3-18.4 1.6-18.6.5-.6 29.9 16 32.8 18.5.9.7 3.9 5.3 6.7 10.2l5.1 8.8v11.6c0 6.4-.2 11.6-.5 11.6s-10.9-5.2-23.6-11.5c-16.7-8.4-22.9-11.1-22.5-9.8 1.5 5.3 10.8 54.4 10.4 54.9-.3.3-8.3-3.3-17.7-8s-17.3-8.6-17.6-8.6 14.4 17.4 32.7 38.6 34.3 39.9 35.6 41.4l2.2 2.8-16 8.6-16 8.7-53-34.8-52.9-34.8-4.7-8.3-4.7-8.3-2.8-46.7c-3.4-55.7-3.7-71.3-1.3-73.3 2.3-1.9 26.7-16.9 27.5-16.9.4 0 4.1 9.8 8.3 21.7M620.3 415l8.7 5.3v27.6c0 16.2-.8 41.1-2 60.3l-2 32.7-4.8 8.2-4.7 8.2-52.9 34.9-52.8 34.8-13.4-7.1c-7.4-4-13.4-7.5-13.4-8 0-.6 46.3-54.9 70.8-83.2 1.4-1.5-13.6 5.1-28.6 12.7-3 1.5-5.6 2.5-5.9 2.3-.2-.3 2-12.7 5.1-27.7 3.1-14.9 5.6-27.5 5.6-28 0-.6-11.6 4.8-25.9 11.9-14.2 7.2-26.1 12.7-26.5 12.4-.3-.4-.6-6.4-.6-13.4v-12.7l5.4-9.1 5.3-9.2 19.9-11.4c10.9-6.3 20-11.2 20.3-11 .2.3.9 9 1.5 19.4.7 10.5 1.5 19.3 1.8 19.7.4.3 10.2-7.8 21.9-18.1 14.6-12.7 21.5-18.2 22-17.3.3.7 1 8 1.3 16.3 1.2 25.5.2 26.6 15.2-16.1 16.6-46.9 14.9-43 17.7-41.2 1.2.8 6.1 3.9 11 6.8"/><path fill="#404000" d="M469.8 301.7c2.8.2 7.6.2 10.5 0 2.8-.2.5-.3-5.3-.3s-8.1.1-5.2.3m30.7 53.3c.3.5.8 1 1.1 1 .2 0 .4-.5.4-1 0-.6-.5-1-1.1-1-.5 0-.7.4-.4 1m96.4 5.2c.4 2.8.6 2.9.9.9.2-1.3 0-2.7-.5-3.2-.6-.6-.7.3-.4 2.3m31.5 90.3c0 17 .2 24.2.3 15.8.2-8.3.2-22.3 0-31-.1-8.7-.3-1.9-.3 15.2m-309-13.5c0 8.5.2 12 .3 7.7.2-4.2.2-11.2 0-15.5-.1-4.2-.3-.7-.3 7.8m208.8 15c0 1.4.2 1.9.5 1.2.2-.6.2-1.8 0-2.5-.3-.6-.5-.1-.5 1.3m47 1c0 1.4.2 1.9.5 1.2.2-.6.2-1.8 0-2.5-.3-.6-.5-.1-.5 1.3m-148 5c0 1.4.2 1.9.5 1.2.2-.6.2-1.8 0-2.5-.3-.6-.5-.1-.5 1.3m-47 1c0 1.4.2 1.9.5 1.2.2-.6.2-1.8 0-2.5-.3-.6-.5-.1-.5 1.3m-59.9 6c0 2.5.2 3.5.4 2.2.2-1.2.2-3.2 0-4.5-.2-1.2-.4-.2-.4 2.3m208.9 3c0 1.4.2 1.9.5 1.2.2-.6.2-1.8 0-2.5-.3-.6-.5-.1-.5 1.3m47 1c0 1.4.2 1.9.5 1.2.2-.6.2-1.8 0-2.5-.3-.6-.5-.1-.5 1.3m-150 6c0 1.4.2 1.9.5 1.2.2-.6.2-1.8 0-2.5-.3-.6-.5-.1-.5 1.3m-47 1c0 1.4.2 1.9.5 1.2.2-.6.2-1.8 0-2.5-.3-.6-.5-.1-.5 1.3m-57.9 6c0 2.5.2 3.5.4 2.2.2-1.2.2-3.2 0-4.5-.2-1.2-.4-.2-.4 2.3m208.7 2.5c0 .8.4 1.5 1 1.5.5 0 .7-.7.4-1.5-.4-.8-.8-1.5-1-1.5s-.4.7-.4 1.5m47.2 1.5c0 1.4.2 1.9.5 1.2.2-.6.2-1.8 0-2.5-.3-.6-.5-.1-.5 1.3m-105.4 12c-.2 6.6 0 12 .5 12 .4 0 .7-5.4.7-12s-.2-12-.4-12c-.3 0-.6 5.4-.8 12m5.6 1c0 7.4.1 10.5.3 6.7.2-3.7.2-9.7 0-13.5-.2-3.7-.3-.6-.3 6.8m149.9-5c0 2.5.2 3.5.4 2.2.2-1.2.2-3.2 0-4.5-.2-1.2-.4-.2-.4 2.3m-305 4.5c0 2.7.2 3.8.4 2.2.2-1.5.2-3.7 0-5-.2-1.2-.4 0-.4 2.8m304 12.5c0 2.5.2 3.5.4 2.2.2-1.2.2-3.2 0-4.5-.2-1.2-.4-.2-.4 2.3m-303 4c0 2.5.2 3.5.4 2.2.2-1.2.2-3.2 0-4.5-.2-1.2-.4-.2-.4 2.3m302 12c0 2.5.2 3.5.4 2.2.2-1.2.2-3.2 0-4.5-.2-1.2-.4-.2-.4 2.3m-301 5c0 2.5.2 3.5.4 2.2.2-1.2.2-3.2 0-4.5-.2-1.2-.4-.2-.4 2.3"/><path fill="#804000" d="M352.2 361c0 1.4.2 1.9.5 1.2.2-.6.2-1.8 0-2.5-.3-.6-.5-.1-.5 1.3m245 4.5c0 1.6.2 2.2.5 1.2.2-.9.2-2.3 0-3-.3-.6-.5.1-.5 1.8m-277.1 94.1c0 1.1.3 1.4.6.6.3-.7.2-1.6-.1-1.9-.3-.4-.6.2-.5 1.3m1 17c0 1.1.3 1.4.6.6.3-.7.2-1.6-.1-1.9-.3-.4-.6.2-.5 1.3m306 12c0 1.1.3 1.4.6.6.3-.7.2-1.6-.1-1.9-.3-.4-.6.2-.5 1.3m-1 17c0 1.1.3 1.4.6.6.3-.7.2-1.6-.1-1.9-.3-.4-.6.2-.5 1.3m-302 21c0 1.1.3 1.4.6.6.3-.7.2-1.6-.1-1.9-.3-.4-.6.2-.5 1.3m300 12c0 1.1.3 1.4.6.6.3-.7.2-1.6-.1-1.9-.3-.4-.6.2-.5 1.3"/><path fill="#BF8000" d="M320.2 450c0 1.4.2 1.9.5 1.2.2-.6.2-1.8 0-2.5-.3-.6-.5-.1-.5 1.3m1 16c0 1.4.2 1.9.5 1.2.2-.6.2-1.8 0-2.5-.3-.6-.5-.1-.5 1.3m305.9 12.6c0 1.1.3 1.4.6.6.3-.7.2-1.6-.1-1.9-.3-.4-.6.2-.5 1.3M322.2 483c0 1.4.2 1.9.5 1.2.2-.6.2-1.8 0-2.5-.3-.6-.5-.1-.5 1.3m148.6 15c-.2 6.1 0 11 .5 11 .4 0 .7-5 .7-11 0-6.1-.2-11-.4-11-.3 0-.6 5-.8 11m155.4-3c0 1.4.2 1.9.5 1.2.2-.6.2-1.8 0-2.5-.3-.6-.5-.1-.5 1.3m-303 5c0 1.4.2 1.9.5 1.2.2-.6.2-1.8 0-2.5-.3-.6-.5-.1-.5 1.3m302 12c0 1.4.2 1.9.5 1.2.2-.6.2-1.8 0-2.5-.3-.6-.5-.1-.5 1.3m-301 4c0 1.4.2 1.9.5 1.2.2-.6.2-1.8 0-2.5-.3-.6-.5-.1-.5 1.3m300 13c0 1.4.2 1.9.5 1.2.2-.6.2-1.8 0-2.5-.3-.6-.5-.1-.5 1.3m-299 4c0 1.4.2 1.9.5 1.2.2-.6.2-1.8 0-2.5-.3-.6-.5-.1-.5 1.3m113.5 92.1c.7.7 1.5 1 1.8.7s-.2-.9-1.2-1.2c-1.4-.6-1.5-.5-.6.5"/><path fill="#BFBF00" d="M409.8 330.6 353 359v7c0 6.8.1 7 2.3 6.5 7.4-1.8 100.1-18.5 100.9-18.3.6.2-6.5 5.3-15.6 11.3-9.1 6.1-16.6 11.2-16.6 11.5s12.2 4.6 27 9.5l27 9 27-9c14.9-4.9 27-9.3 27-9.6 0-.4-7.4-5.6-16.5-11.5-9.1-6-16-11-15.3-11.2 1.1-.2 86.9 15.5 94.6 17.3 2.1.5 2.2.3 2.2-6V359l-57-28.5-57-28.5-8.2.1h-8.3zm44.2 81.9c-23.4 15.5-23.5 15.6-24.2 19.7-.4 2.3-.4 4.6 0 5 .5.5 8.6 5.3 18.2 10.8l17.2 10h19.4l21.2-12.3c17.6-10.1 21.2-12.6 21.2-14.4 0-1.9-4.6-5.3-24-18.3-13.2-8.8-24.3-16-24.7-16-.5 0-11.4 7-24.3 15.5m-119.8 1.3-14.2 8.7v8.8c0 4.8 1.4 31.4 3.1 59l3 50.2 4.5 8 4.5 8 51.6 33.9c28.4 18.7 52.4 34 53.2 34 2.6.1 30.1-14.8 29.7-16-.3-.7-16-19.3-35.1-41.4-19-22.1-34.4-40.4-34.2-40.7.3-.2 7.6 3.1 16.3 7.5 8.8 4.4 16.8 8.2 18 8.6 2 .6 1.9-.4-3.5-27.5l-5.6-28.1L404 468c-13.2-11.6-21.7-18.4-22.1-17.7s-1 8.2-1.4 16.7c-1.3 27.5 0 29-16.9-19.1-8.2-23.3-15-42.5-15.1-42.6 0-.1-6.5 3.7-14.3 8.5m271.4-1.6c-.7 1.8-7.1 19.7-14.1 39.8-7.1 20.1-13.2 36.9-13.6 37.3-.4.5-1-4.9-1.4-12-.4-7-1-16.4-1.4-20.7l-.6-7.9-21.5 18.8c-11.8 10.3-21.6 18.9-21.8 19-.6.5-11.3 55.7-10.9 56.2.3.2 8.2-3.5 17.7-8.2 9.4-4.7 17.5-8.5 18-8.3.4.2-15.7 19.3-35.7 42.6-20.1 23.3-36.3 42.5-36.1 42.7.9.9 24.7 13.5 25.5 13.5.4 0 24.2-15.5 52.8-34.4l52-34.3 4.6-8 4.6-7.9 2.2-36.5c1.2-20 2.1-46.8 2.1-59.5v-23.1l-10.1-6.1c-5.5-3.4-10.2-6.2-10.5-6.2s-1.1 1.5-1.8 3.2m-98 45.8-18.9 10.9-5.3 9.2-5.4 9.1v12.4c0 6.8.3 12.4.8 12.4.4 0 12-5.8 25.7-12.9l25-12.9-.1-6.4c-.3-13-1.6-32.8-2.3-32.8-.3 0-9.1 5-19.5 11m-80 7.7c-.4 8.7-1 16.8-1.3 18-.4 2 1.6 3.2 21.6 13.2C460 503 470.2 508 470.5 508s.5-5 .5-11v-11l-4.6-8c-2.5-4.3-5.3-8.5-6.2-9.3-1-.7-6.9-4.3-13.2-7.9s-13.1-7.5-15.1-8.7l-3.6-2.1z"/><path fill="olive" d="M352.3 368c0 3 .2 4.3.4 2.7.2-1.5.2-3.9 0-5.5-.2-1.5-.4-.2-.4 2.8m244.9 2c0 1.4.2 1.9.5 1.2.2-.6.2-1.8 0-2.5-.3-.6-.5-.1-.5 1.3m-168.1 60.6c0 1.1.3 1.4.6.6.3-.7.2-1.6-.1-1.9-.3-.4-.6.2-.5 1.3M320.2 455c0 1.9.2 2.7.5 1.7.2-.9.2-2.5 0-3.5-.3-.9-.5-.1-.5 1.8m208 2c0 1.4.2 1.9.5 1.2.2-.6.2-1.8 0-2.5-.3-.6-.5-.1-.5 1.3m47 1c0 1.4.2 1.9.5 1.2.2-.6.2-1.8 0-2.5-.3-.6-.5-.1-.5 1.3m-105.4.7c2.8.2 7.6.2 10.5 0 2.8-.2.5-.3-5.3-.3s-8.1.1-5.2.3m-42.7 4.9c0 1.1.3 1.4.6.6.3-.7.2-1.6-.1-1.9-.3-.4-.6.2-.5 1.3m-47 1c0 1.1.3 1.4.6.6.3-.7.2-1.6-.1-1.9-.3-.4-.6.2-.5 1.3m-58.8 6.9c0 2.2.2 3 .4 1.7.2-1.2.2-3 0-4-.3-.9-.5.1-.4 2.3m207.8 2.1c0 1.1.3 1.4.6.6.3-.7.2-1.6-.1-1.9-.3-.4-.6.2-.5 1.3m47 1c0 1.1.3 1.4.6.6.3-.7.2-1.6-.1-1.9-.3-.4-.6.2-.5 1.3m-150 5c0 1.1.3 1.4.6.6.3-.7.2-1.6-.1-1.9-.3-.4-.6.2-.5 1.3m-47 1c0 1.1.3 1.4.6.6.3-.7.2-1.6-.1-1.9-.3-.4-.6.2-.5 1.3m248.2 2.9c0 2.2.2 3 .4 1.7.2-1.2.2-3 0-4-.3-.9-.5.1-.4 2.3m-305 5c0 2.2.2 3 .4 1.7.2-1.2.2-3 0-4-.3-.9-.5.1-.4 2.3m102.4-2.4c.7.7 1.5 1 1.8.7s-.2-.9-1.2-1.2c-1.4-.6-1.5-.5-.6.5m201.6 14.4c0 2.2.2 3 .4 1.7.2-1.2.2-3 0-4-.3-.9-.5.1-.4 2.3m-303 5c0 2.2.2 3 .4 1.7.2-1.2.2-3 0-4-.3-.9-.5.1-.4 2.3m302 12c0 2.2.2 3 .4 1.7.2-1.2.2-3 0-4-.3-.9-.5.1-.4 2.3m-301 4c0 2.2.2 3 .4 1.7.2-1.2.2-3 0-4-.3-.9-.5.1-.4 2.3M624.2 534c0 1.9.2 2.7.5 1.7.2-.9.2-2.5 0-3.5-.3-.9-.5-.1-.5 1.8m-299 4c0 1.9.2 2.7.5 1.7.2-.9.2-2.5 0-3.5-.3-.9-.5-.1-.5 1.8"/></svg>